<?xml version="1.0" encoding="UTF-8" standalone="no"?>
<!-- Created with Inkscape after screenshot and vectorization of the logo -->

<svg
   version="1.1"
   id="svg1"
   width="1126.5706"
   height="438.66666"
   viewBox="0 0 675 438.66666"
   preserveAspectRatio="xMinYMid meet"
   xmlns:xlink="http://www.w3.org/1999/xlink"
   xmlns="http://www.w3.org/2000/svg"
   xmlns:svg="http://www.w3.org/2000/svg">
   <defs
      id="defs1" />
   <g
      id="g1">
      <path
         style="fill:#f3c643"
         d="m 153.33334,411.93204 c -36.98638,-3.32802 -64.536063,-28.09014 -70.016547,-62.93205 -0.930204,-5.91373 -0.949427,-20.66619 -0.03431,-26.33333 2.7637,-17.11512 11.754832,-33.46435 24.258187,-44.11045 11.46689,-9.76357 26.70482,-16.37748 42.67425,-18.52244 11.59023,-1.55675 29.52341,-0.38893 41.11843,2.67766 7.73758,2.04639 17.33333,5.99338 17.33333,7.12966 0,0.54133 -1.39096,8.16492 -3.09102,16.94131 -2.04227,10.54297 -3.34288,15.84567 -3.83334,15.62877 -17.61638,-7.79074 -22.90159,-9.2376 -34.07564,-9.3284 -6.53163,-0.0531 -8.87124,0.20737 -12.74669,1.41898 -9.11708,2.85033 -16.25925,9.03314 -20.59844,17.83158 -3.33043,6.75301 -4.40795,11.55047 -4.80368,21.3876 -0.44612,11.08962 0.73856,17.66601 4.61386,25.6124 5.84434,11.98396 16.26729,18.65693 30.8472,19.74898 9.22278,0.69079 22.41801,-2.39475 32.92188,-7.69838 2.32877,-1.17585 4.31336,-2.04326 4.4102,-1.92759 0.52852,0.6313 6.36459,32.65654 6.04528,33.1732 -0.51269,0.82955 -9.66756,4.32351 -15.73129,6.00386 -10.07081,2.79076 -28.10749,4.30499 -39.29166,3.29864 z m 228.71179,0.01 c -10.61772,-0.97054 -20.51887,-3.98792 -28.5643,-8.70497 -5.1598,-3.02521 -15.22151,-13.22229 -18.32681,-18.57338 -3.32993,-5.73818 -6.24853,-13.42923 -8.34724,-21.99653 l -1.71478,-7 -0.25331,-46.83333 -0.25332,-46.83334 h 23.33029 23.33029 l 0.26769,47.5 c 0.23711,42.07253 0.39972,48.07131 1.42311,52.5 2.25035,9.73832 5.65371,15.31063 11.22706,18.382 3.10056,1.70867 4.15373,1.92863 9.16955,1.91516 6.5787,-0.0177 9.72647,-1.29102 13.32602,-5.39068 7.06711,-8.049 7.98293,-16.64591 7.99743,-75.07314 l 0.01,-39.83334 h 19.37303 19.37304 l -0.2528,48.16667 -0.2528,48.16667 -1.70215,7.66666 c -4.913,22.12869 -15.24534,35.49052 -32.51932,42.05411 -8.5927,3.26497 -24.72529,4.97658 -36.64057,3.88744 z M 226.00002,335.66666 v -73.66667 h 23.33333 23.33334 v 58.66667 58.66666 h 25 25 v 15 15 h -48.33334 -48.33333 z m 249.33335,-0.0566 v -73.72325 l 34.5,0.28778 c 28.06331,0.23408 35.74381,0.49492 41.16667,1.39807 14.65985,2.44152 26.45536,6.78993 33.47952,12.34221 4.01644,3.17481 8.46565,9.62939 9.87022,14.31894 2.05535,6.8624 0.91729,20.07031 -2.14985,24.95031 -1.94729,3.09824 -4.98753,6.3813 -7.81872,8.44317 -2.83076,2.06156 -10.04109,4.9896 -12.57816,5.10787 -0.80832,0.0377 0.84949,0.62967 3.68403,1.31553 18.24562,4.41483 30.02921,18.93126 29.99328,36.94929 -0.0383,19.21884 -13.03671,32.94554 -36.89343,38.96061 -11.71651,2.95412 -18.87822,3.37272 -57.70268,3.37272 h -35.55088 z m 72.55506,46.02797 c 7.31564,-2.17251 11.08041,-8.13641 10.67723,-16.91417 -0.17777,-3.87023 -0.57284,-5.53462 -1.68322,-7.09122 -3.31111,-4.64171 -11.68776,-7.22622 -26.05203,-8.03801 l -8.16371,-0.46137 v 16.76669 16.7667 h 10.879 c 7.86369,0 11.83904,-0.2851 14.34273,-1.02862 z m -2.43685,-60.23814 c 3.73687,-1.17241 8.61182,-4.7408 10.84986,-7.94192 1.70473,-2.43834 2.04113,-3.60356 2.21335,-7.66667 0.17059,-4.02468 -0.0434,-5.218 -1.33771,-7.45798 -3.0663,-5.30689 -10.77063,-7.8975 -25.93887,-8.72205 l -8.57151,-0.46595 v 16.8319 16.8319 l 10.16667,-0.32004 c 5.59167,-0.17603 11.26986,-0.66616 12.61821,-1.08919 z m 24.88179,-122.75721 c -20.44206,-1.70566 -37.30981,-10.25717 -47.7245,-24.19507 -9.15356,-12.25014 -14.02205,-26.48413 -15.15284,-44.30228 -1.13004,-17.80635 1.6539,-32.936441 8.55209,-46.478675 9.70564,-19.053703 24.17837,-30.36502 45.85366,-35.837405 5.05265,-1.27565 7.53283,-1.460976 19.13826,-1.430067 12.28722,0.03273 13.85517,0.175369 19.98435,1.818066 12.08834,3.239825 25.21865,10.881882 32.36318,18.835903 6.68532,7.442785 12.6106,17.877214 15.90789,28.013858 8.29225,25.49232 4.55135,56.60162 -9.25031,76.92545 -10.40387,15.32038 -28.64849,24.80341 -51.33844,26.68424 -8.42844,0.69866 -9.57789,0.69653 -18.33334,-0.034 z m 19.54979,-31.32264 C 597.95624,163.8471 603.53022,154.21603 605.6946,140 c 1.1136,-7.31429 1.27453,-26.69646 0.27953,-33.66667 -2.1418,-15.003883 -7.22732,-24.220292 -15.6513,-28.3646 -2.63614,-1.296889 -4.60778,-1.682872 -9.54106,-1.867826 -5.86169,-0.21976 -6.46282,-0.112743 -10.48257,1.866174 C 559.24898,83.407086 554.0079,97.894627 554.0079,123 c 0,23.50932 4.51231,36.89829 14.53265,43.12138 5.55759,3.45153 14.88762,3.97553 21.34261,1.19867 z M 48.152093,122.82014 C 38.152408,82.585727 29.977408,49.441666 29.985425,49.166666 c 0.008,-0.275 12.721767,-0.5 28.252776,-0.5 h 28.238198 l 3.014092,15.499999 c 14.518739,74.662805 18.209249,93.005145 18.572259,92.306635 0.23055,-0.44365 5.92483,-24.88164 12.65395,-54.30664 l 12.23477,-53.499994 h 18.47053 18.47054 l -0.58497,2.166666 C 157.00265,96.40989 131.68206,189.94146 130.956,192.5 l -0.99324,3.5 -31.81471,-0.0132 -31.814712,-0.0132 z M 175.33335,122.33333 V 48.666666 h 23.33333 23.33334 V 122.33333 196 h -23.33334 -23.33333 z m 68.66667,-0.0489 V 48.56885 l 33.5,0.269348 c 36.08565,0.290137 38.82912,0.512857 51.51989,4.182476 14.7479,4.264455 25.8648,11.479088 33.74281,21.898377 8.91644,11.79269 12.92781,24.123456 13.68951,42.080949 1.43808,33.90314 -10.27193,57.13404 -35.11887,69.67057 -5.27351,2.66075 -12.08939,5.04564 -18.33334,6.41488 -11.19308,2.45455 -18.76317,2.90236 -49.16667,2.90851 L 244.00002,196 Z m 58.99731,39.64299 c 7.84071,-0.96157 12.18333,-2.65372 16.29319,-6.34884 4.06599,-3.65568 7.58724,-10.41517 9.15726,-17.57857 1.60546,-7.32512 1.6025,-25.79941 -0.005,-33.33334 C 324.7765,87.487429 314.34407,79.386389 295.83369,79.344917 l -5.16666,-0.01158 V 121 162.66666 l 3.16666,-0.002 c 1.74167,-0.001 5.86546,-0.33285 9.16398,-0.73737 z m 88.33603,-39.59408 V 48.666666 h 51.66667 51.66667 v 13.666666 13.666666 h -28.33333 -28.33334 v 15.666667 15.666665 h 25 25.00001 V 120.66666 134 h -25.00001 -25 v 16 16 h 28.33334 28.33333 v 15 15 h -51.66667 -51.66667 z"
         id="path4" />
      <path
         style="fill:#e23928"
         d="M 7.3333339,219.99999 V 6.6666665 H 339.33336 671.33338 V 219.99999 433.33332 H 339.33336 7.3333339 Z M 180.36037,410.94944 c 4.04819,-0.52635 9.56728,-1.56857 12.26463,-2.31604 6.06373,-1.68035 15.2186,-5.17431 15.73129,-6.00386 0.31931,-0.51666 -5.51676,-32.5419 -6.04528,-33.1732 -0.0968,-0.11567 -2.08143,0.75174 -4.4102,1.92759 -27.33378,13.80141 -53.5804,8.84152 -63.76908,-12.0506 -3.8753,-7.94639 -5.05998,-14.52278 -4.61386,-25.6124 0.39573,-9.83713 1.47325,-14.63459 4.80368,-21.3876 4.33919,-8.79844 11.48136,-14.98125 20.59844,-17.83158 3.87545,-1.21161 6.21506,-1.47206 12.74669,-1.41898 11.17405,0.0908 16.45926,1.53766 34.07564,9.3284 0.49046,0.2169 1.79107,-5.0858 3.83334,-15.62877 1.70006,-8.77639 3.09102,-16.39998 3.09102,-16.94131 0,-1.13628 -9.59575,-5.08327 -17.33333,-7.12966 -11.59502,-3.06659 -29.5282,-4.23441 -41.11843,-2.67766 -35.4854,4.76627 -61.522645,29.13095 -66.93244,62.63289 -0.915114,5.66714 -0.895891,20.4196 0.03431,26.33333 6.176818,39.26882 40.13079,65.11949 83.01656,63.20419 3.66666,-0.16376 9.97882,-0.72839 14.02702,-1.25474 z m 228.52922,-0.36934 c 11.05463,-2.18343 18.80979,-5.91118 25.88454,-12.44217 7.9952,-7.38069 13.19033,-17.54209 16.43089,-32.13794 l 1.70215,-7.66666 0.2528,-48.16667 0.2528,-48.16667 H 434.03973 414.6667 l -0.01,39.83334 c -0.0145,58.42723 -0.93032,67.02414 -7.99743,75.07314 -3.59955,4.09966 -6.74732,5.373 -13.32602,5.39068 -5.01582,0.0135 -6.06899,-0.20649 -9.16955,-1.91516 -5.57335,-3.07137 -8.97671,-8.64368 -11.22706,-18.382 -1.02339,-4.42869 -1.186,-10.42747 -1.42311,-52.5 l -0.26769,-47.5 h -23.33029 -23.33029 l 0.25332,46.83334 0.25331,46.83333 1.71478,7 c 2.09871,8.5673 5.01731,16.25835 8.34724,21.99653 3.1053,5.35109 13.16701,15.54817 18.32681,18.57338 14.51605,8.5108 35.4512,11.28541 55.40876,7.34353 z m -86.2229,-16.24678 v -15 h -25 -25 v -58.66666 -58.66667 h -23.33334 -23.33333 v 73.66667 73.66666 h 48.33333 48.33334 z m 231.0509,14.2701 c 15.1865,-1.52212 29.76243,-6.6721 38.46938,-13.59205 5.4919,-4.36474 9.44296,-10.03971 11.53703,-16.57083 6.85748,-21.38754 -5.71989,-42.94147 -28.23692,-48.38984 -2.83454,-0.68586 -4.49235,-1.27785 -3.68403,-1.31553 2.53707,-0.11827 9.7474,-3.04631 12.57816,-5.10787 7.79953,-5.68018 10.98724,-12.62791 10.99345,-23.96064 0.004,-7.37372 -1.18029,-11.55871 -4.80874,-16.99235 -6.36145,-9.52636 -19.15335,-15.70204 -39.56588,-19.10164 -5.42286,-0.90315 -13.10336,-1.16399 -41.16667,-1.39807 l -34.5,-0.28778 v 73.72325 73.72325 h 35.55088 c 20.87532,0 38.55712,-0.30131 42.83334,-0.7299 z M 522.6667,365.89996 v -16.76669 l 8.16371,0.46137 c 14.36427,0.81179 22.74092,3.3963 26.05203,8.03801 2.20275,3.08795 2.42134,10.97259 0.43237,15.59607 -3.27976,7.624 -7.84808,9.43794 -23.76911,9.43794 h -10.879 z m 0,-59.92273 v -16.8319 l 8.57151,0.46595 c 15.16824,0.82455 22.87257,3.41516 25.93887,8.72205 1.29426,2.23998 1.5083,3.4333 1.33771,7.45798 -0.17222,4.06311 -0.50862,5.22833 -2.21335,7.66667 -2.23804,3.20112 -7.11299,6.76951 -10.84986,7.94192 -1.34835,0.42303 -7.02654,0.91316 -12.61821,1.08919 l -10.16667,0.32004 z m 66.00001,-107.30052 c 22.68995,-1.88083 40.93457,-11.36386 51.33844,-26.68424 11.74617,-17.29699 16.41387,-43.40062 11.96722,-66.92545 -2.50755,-13.266133 -9.84195,-28.235897 -18.6248,-38.013858 -7.14453,-7.954021 -20.27484,-15.596078 -32.36318,-18.835903 -6.12918,-1.642697 -7.69713,-1.78534 -19.98435,-1.818066 -14.66993,-0.03907 -19.27473,0.709653 -30.14408,4.901317 -24.88007,9.594772 -41.46492,34.250299 -43.42701,64.55988 -2.10733,32.5534 9.56743,59.97558 31.10398,73.05834 8.255,5.01465 20.59955,8.78937 31.80044,9.72396 8.75545,0.73055 9.9049,0.73268 18.33334,0.034 z M 573.87388,168.39596 C 560.23657,164.45323 554.0079,150.22003 554.0079,123 c 0,-25.105373 5.24108,-39.592914 16.2913,-45.032922 4.01975,-1.978917 4.62088,-2.085934 10.48257,-1.866174 4.93328,0.184954 6.90492,0.570937 9.54106,1.867826 8.42398,4.144308 13.5095,13.360717 15.6513,28.3646 0.995,6.97021 0.83407,26.35238 -0.27953,33.66667 -2.16438,14.21603 -7.73836,23.8471 -15.81144,27.32005 -4.24365,1.82557 -11.68626,2.32575 -16.00928,1.07591 z M 130.956,192.5 c 0.72606,-2.55854 26.04665,-96.09011 38.35157,-141.666668 l 0.58497,-2.166666 H 151.422 132.95147 L 120.7167,102.16666 c -6.72912,29.425 -12.4234,53.86299 -12.65395,54.30664 -0.36301,0.69851 -4.05352,-17.64383 -18.572259,-92.306635 L 86.476399,48.666666 H 58.238201 c -15.531009,0 -28.244758,0.225 -28.252776,0.5 -0.008,0.275 8.166983,33.419061 18.166668,73.653474 l 18.181245,73.15347 31.814712,0.0132 31.81471,0.0132 z m 91.04402,-70.16667 V 48.666666 H 198.66668 175.33335 V 122.33333 196 h 23.33333 23.33334 z m 89,72.71504 c 16.86959,-2.16136 27.75749,-5.89692 38.66667,-13.26626 8.66854,-5.85574 16.28018,-15.05826 20.5381,-24.83066 9.06468,-20.80448 8.43554,-53.1938 -1.4122,-72.702056 -7.64235,-15.139406 -21.34858,-25.901269 -39.77268,-31.22872 -12.69077,-3.669619 -15.43424,-3.892339 -51.51989,-4.182476 l -33.5,-0.269348 V 122.28442 196 l 29.83333,-0.006 c 21.72084,-0.004 31.82747,-0.26152 37.16667,-0.94559 z M 290.66669,121 V 79.333331 l 5.16666,0.01158 c 18.51038,0.04147 28.94281,8.142512 32.60909,25.321749 1.60784,7.53393 1.6108,26.00822 0.005,33.33334 -2.37083,10.81715 -8.38027,19.04902 -15.98269,21.89345 -3.60636,1.34932 -13.14476,2.76808 -18.63174,2.77133 l -3.16666,0.002 z m 204.00001,60 v -15 h -28.33333 -28.33334 v -16 -16 h 25 25.00001 v -13.33334 -13.33333 h -25.00001 -25 V 91.666665 75.999998 h 28.33334 28.33333 V 62.333332 48.666666 H 443.00003 391.33336 V 122.33333 196 h 51.66667 51.66667 z m 388.51197,124.51684 c 1.19823,-0.14838 2.99823,-0.14531 4,0.007 1.00177,0.15212 0.0214,0.27352 -2.17861,0.26977 -2.2,-0.004 -3.01962,-0.1282 -1.82139,-0.27657 z m -10.63694,-0.63892 c 0.48125,-0.19258 1.05625,-0.1689 1.27778,0.0526 0.22153,0.22153 -0.17222,0.37909 -0.875,0.35014 -0.77663,-0.032 -0.9346,-0.18996 -0.40278,-0.40277 z m -4.66667,-0.66667 c 0.48125,-0.19258 1.05625,-0.1689 1.27778,0.0526 0.22153,0.22153 -0.17222,0.3791 -0.875,0.35015 -0.77663,-0.032 -0.9346,-0.18996 -0.40278,-0.40278 z m -31.29337,-13.37792 c -0.82925,-1.05737 -0.80567,-1.08095 0.2517,-0.25171 1.1105,0.87092 1.46366,1.41837 0.91497,1.41837 -0.13844,0 -0.66344,-0.525 -1.16667,-1.16666 z m 101.08504,-4.16667 c 1.80577,-1.83333 3.43322,-3.33333 3.61655,-3.33333 0.18333,0 -1.14411,1.5 -2.94988,3.33333 -1.80577,1.83333 -3.43321,3.33333 -3.61654,3.33333 -0.18334,0 1.14411,-1.5 2.94987,-3.33333 z m -68.73001,-16.83333 -1.26999,-1.5 1.5,1.26999 c 1.40963,1.19348 1.80349,1.73001 1.26999,1.73001 -0.1265,0 -0.8015,-0.675 -1.5,-1.5 z m 33.06335,-1.41837 c 0,-0.13844 0.525,-0.66344 1.16666,-1.16667 1.05737,-0.82925 1.08095,-0.80567 0.25171,0.2517 -0.87092,1.1105 -1.41837,1.46366 -1.41837,0.91497 z m 122.84603,-16.21029 c 0.6486,-0.16903 1.5486,-0.15792 2,0.0247 0.4514,0.18262 -0.079,0.32091 -1.1794,0.30732 -1.1,-0.0136 -1.4692,-0.16299 -0.8206,-0.33202 z m 20.3206,0.0205 c 0.4584,-0.18494 1.2084,-0.18494 1.6667,0 0.4583,0.18494 0.083,0.33626 -0.8333,0.33626 -0.9167,0 -1.2917,-0.15132 -0.8334,-0.33626 z m -88.44733,-4.61403 c 0.032,-0.77663 0.18996,-0.9346 0.40278,-0.40278 0.19258,0.48125 0.16889,1.05625 -0.0526,1.27778 -0.22152,0.22152 -0.37909,-0.17223 -0.35014,-0.875 z m -46.00001,-2.66667 c 0.032,-0.77663 0.18996,-0.9346 0.40278,-0.40278 0.19258,0.48125 0.1689,1.05625 -0.0526,1.27778 -0.22153,0.22153 -0.37909,-0.17222 -0.35015,-0.875 z m -52,-4.66667 c 0.032,-0.77663 0.18996,-0.9346 0.40278,-0.40278 0.19258,0.48125 0.16889,1.05625 -0.0526,1.27778 -0.22153,0.22153 -0.3791,-0.17222 -0.35015,-0.875 z m 52.744,-2.61111 c 0.0136,-1.1 0.163,-1.46929 0.33203,-0.82064 0.16903,0.64864 0.15792,1.54864 -0.0247,2 -0.18262,0.45135 -0.32091,-0.0794 -0.30733,-1.17936 z m 180.20334,-2.33333 c 1.4322,-1.46667 2.754,-2.66667 2.9373,-2.66667 0.1833,0 -0.8384,1.2 -2.2706,2.66667 -1.4321,1.46666 -2.7539,2.66666 -2.9373,2.66666 -0.1833,0 0.8385,-1.2 2.2706,-2.66666 z m -133.49851,-0.33334 c 0.007,-1.46666 0.14392,-1.98816 0.30339,-1.15889 0.15946,0.82928 0.1534,2.02928 -0.0135,2.66667 -0.16686,0.63739 -0.29733,-0.0411 -0.28993,-1.50778 z m -0.0629,-10.33333 c 0,-0.91667 0.15132,-1.29167 0.33626,-0.83333 0.18494,0.45833 0.18494,1.20833 0,1.66666 -0.18494,0.45834 -0.33626,0.0833 -0.33626,-0.83333 z m 141.24851,-0.33333 c 0,-0.36667 0.2908,-1.11667 0.6463,-1.66667 0.3554,-0.55 0.6462,-0.7 0.6462,-0.33333 0,0.36666 -0.2908,1.11666 -0.6462,1.66666 -0.3555,0.55 -0.6463,0.7 -0.6463,0.33334 z m -49.3537,-1.25171 c 0,-0.13843 0.525,-0.66343 1.1666,-1.16666 1.0574,-0.82925 1.081,-0.80567 0.2517,0.2517 -0.8709,1.1105 -1.4183,1.46365 -1.4183,0.91496 z m -237.87012,-2.08163 c 0.0136,-1.1 0.163,-1.46929 0.33203,-0.82064 0.16903,0.64864 0.15792,1.54864 -0.0247,2 -0.18262,0.45135 -0.32091,-0.0794 -0.30733,-1.17936 z m 99.30864,0.33334 c 0,-0.91667 0.15132,-1.29167 0.33626,-0.83334 0.18494,0.45834 0.18494,1.20834 0,1.66667 -0.18494,0.45833 -0.33626,0.0833 -0.33626,-0.83333 z m -52.64197,-3 c 0.0136,-1.1 0.163,-1.46929 0.33203,-0.82065 0.16903,0.64865 0.15792,1.54865 -0.0247,2 -0.18262,0.45136 -0.32091,-0.0793 -0.30733,-1.17935 z m 195.22385,-0.66667 c 0,-0.36667 0.2908,-1.11667 0.6462,-1.66667 0.3555,-0.54999 0.6463,-0.69999 0.6463,-0.33333 0,0.36667 -0.2908,1.11667 -0.6463,1.66667 -0.3554,0.55 -0.6462,0.7 -0.6462,0.33333 z m -240.63452,-6.05555 c 0.032,-0.77663 0.18996,-0.9346 0.40278,-0.40278 0.19258,0.48125 0.1689,1.05625 -0.0526,1.27778 -0.22153,0.22152 -0.37909,-0.17223 -0.35015,-0.875 z m 289.33342,0 c 0.032,-0.77663 0.1899,-0.9346 0.4028,-0.40278 0.1925,0.48125 0.1689,1.05625 -0.053,1.27778 -0.2215,0.22152 -0.3791,-0.17223 -0.3501,-0.875 z M 860.05265,208.2778 c 0.032,-0.77663 0.18996,-0.9346 0.40278,-0.40277 0.19258,0.48125 0.1689,1.05625 -0.0526,1.27777 -0.22153,0.22153 -0.37909,-0.17222 -0.35015,-0.875 z m -40.7193,-15.57176 c 0,-0.34503 0.29657,-0.81061 0.65903,-1.03463 0.37791,-0.23356 0.48967,0.034 0.26201,0.62732 -0.44319,1.15495 -0.92104,1.36626 -0.92104,0.40731 z M 867.66673,190 c 0.66366,-0.73334 1.35665,-1.33334 1.53998,-1.33334 0.18334,0 -0.20966,0.6 -0.87331,1.33334 -0.66366,0.73333 -1.35665,1.33333 -1.53999,1.33333 -0.18333,0 0.20966,-0.6 0.87332,-1.33333 z m 182.91497,-3.16667 c -0.8292,-1.05737 -0.8057,-1.08095 0.2517,-0.2517 1.1105,0.87091 1.4637,1.41837 0.915,1.41837 -0.1385,0 -0.6635,-0.525 -1.1667,-1.16667 z m -227.24831,-1.5 C 823.72586,184.6 824.19697,184 824.3803,184 c 0.18334,0 0.0122,0.6 -0.38024,1.33333 -0.39247,0.73333 -0.86358,1.33333 -1.04691,1.33333 -0.18334,0 -0.0122,-0.6 0.38024,-1.33333 z m 60.84251,-3.14506 c 1.01337,-0.15323 2.51337,-0.14914 3.33333,0.009 0.81996,0.15825 -0.009,0.28362 -1.8425,0.27862 -1.83333,-0.005 -2.50421,-0.13448 -1.49083,-0.28772 z m 150.3242,-2.62979 c 0.4583,-0.18495 1.2083,-0.18495 1.6666,0 0.4584,0.18494 0.083,0.33625 -0.8333,0.33625 -0.9167,0 -1.2917,-0.15131 -0.8333,-0.33625 z M 833.66673,172 c 1.43216,-1.46667 2.75393,-2.66667 2.93726,-2.66667 0.18333,0 -0.83843,1.2 -2.2706,2.66667 -1.43216,1.46666 -2.75393,2.66666 -2.93726,2.66666 -0.18333,0 0.83844,-1.2 2.2706,-2.66666 z m 253.58167,-2.5 c -0.8293,-1.05737 -0.8057,-1.08095 0.2517,-0.25171 1.1105,0.87092 1.4636,1.41837 0.9149,1.41837 -0.1384,0 -0.6634,-0.525 -1.1666,-1.16666 z m -155.33337,-1.33334 c -0.82925,-1.05737 -0.80567,-1.08095 0.2517,-0.2517 0.64167,0.50323 1.16667,1.02823 1.16667,1.16667 0,0.54869 -0.54746,0.19553 -1.41837,-0.91497 z m 147.41837,-3.5 c -0.6009,-0.3883 -0.6831,-0.65032 -0.206,-0.65646 0.4367,-0.006 0.9794,0.2898 1.206,0.65646 0.5115,0.82769 0.2808,0.82769 -1,0 z m -159.33333,-4 c -1.28334,-0.70259 -2.09344,-1.29002 -1.80023,-1.30539 0.70647,-0.037 4.46689,1.91816 4.46689,2.32251 0,0.43634 -0.039,0.42146 -2.66666,-1.01712 z m 128.54163,-4.45541 c 0.4813,-0.19258 1.0563,-0.16889 1.2778,0.0526 0.2215,0.22152 -0.1722,0.37909 -0.875,0.35014 -0.7766,-0.032 -0.9346,-0.18996 -0.4028,-0.40278 z m -9.7083,-0.6708 c 0.6417,-0.16769 1.6917,-0.16769 2.3333,0 0.6417,0.16768 0.1167,0.30488 -1.1666,0.30488 -1.2834,0 -1.8084,-0.1372 -1.1667,-0.30488 z m -145.625,-2.66253 c 0.48125,-0.19258 1.05625,-0.1689 1.27778,0.0526 0.22152,0.22153 -0.17223,0.3791 -0.875,0.35015 -0.77663,-0.032 -0.9346,-0.18996 -0.40278,-0.40278 z"
         id="path3" />
      <path
         style="fill:#000000"
         d="m 1126.3294,219.33333 c 0,-120.816666 0.077,-170.241664 0.1707,-109.83333 0.094,60.40833 0.094,159.25833 0,219.66666 -0.094,60.40833 -0.1707,10.98333 -0.1707,-109.83333 z m -448.32935,0.66666 V 6.6666665 H 898.66673 1119.3334 V 219.99999 433.33332 H 898.66673 678.00005 Z m 224.00002,84.26617 c 28.72258,-5.02371 47.18912,-22.53648 53.91947,-51.13461 9.69863,-41.2108 -7.72329,-81.92128 -40.69287,-95.08857 -10.50766,-4.19653 -15.48673,-5.01638 -30.22661,-4.97712 -12.18916,0.0325 -13.88651,0.18402 -19.77969,1.76615 -19.89947,5.34237 -33.80053,16.03111 -43.282,33.28022 -12.67877,23.06577 -13.34235,56.55368 -1.60645,81.07056 3.72501,7.78174 6.12638,11.30518 11.62724,17.06022 13.01205,13.61329 32.87209,20.34107 57.0409,19.32313 4.03334,-0.16987 9.88334,-0.75486 13.00001,-1.29998 z m -23.27909,-29.28278 c -12.81166,-3.59479 -18.87197,-15.92421 -19.81699,-40.31672 -1.03067,-26.60341 4.61741,-44.21562 16.09607,-50.19179 4.09095,-2.12988 13.45339,-2.39192 18.4314,-0.51588 7.57726,2.85561 13.13809,10.23445 15.92507,21.13146 2.08978,8.17093 2.9852,22.6541 2.07341,33.53665 -1.6502,19.69586 -6.81791,30.72481 -16.46599,35.14185 -4.591,2.10183 -11.29418,2.603 -16.24297,1.21443 z m -98.05426,-28.98339 v -56.66666 h 17 17.00001 v -17 -17 h -57.00001 -57 v 17 17 h 16.66667 16.66666 v 56.66666 56.66667 h 23.33334 23.33333 z m 238.66668,31.5 v -25.16666 l 16.1667,-0.0252 c 12.5442,-0.0196 17.5636,-0.28821 22.401,-1.19891 20.9064,-3.93589 34.6272,-12.43676 41.3532,-25.62074 5.788,-11.34544 5.1883,-31.28091 -1.3086,-43.50002 -4.2994,-8.08608 -12.4873,-15.28225 -21.9456,-19.28754 -5.1494,-2.18061 -11.1455,-3.84988 -19.6667,-5.47509 -6.7706,-1.29133 -10.2619,-1.42191 -45.5,-1.70177 l -38.16666,-0.30312 v 73.72288 73.72287 h 23.33333 23.33333 z m 0,-73.16666 v -25 l 6.5,0.005 c 19.1109,0.0148 27.777,5.65829 30.2186,19.67871 1.5504,8.90327 -0.2975,17.44802 -4.9093,22.70071 -4.7118,5.36656 -11.9761,7.61554 -24.5984,7.61554 h -7.2109 z"
         id="path2" />
   </g>
</svg>
